<svg width="684.2" height="279.40000000000003" xmlns="http://www.w3.org/2000/svg" xmlns:xlink="http://www.w3.org/1999/xlink"><line x1="64.75" y1="7.0" x2="7.25" y2="31.0" style="stroke:black; stroke-width:1px;" />
<line x1="64.75" y1="7.0" x2="27.75" y2="31.0" style="stroke:black; stroke-width:1px;" />
<line x1="27.75" y1="38.0" x2="5.5" y2="62.0" style="stroke:black; stroke-width:1px;" />
<line x1="27.75" y1="38.0" x2="22.0" y2="62.0" style="stroke:black; stroke-width:1px;" />
<line x1="27.75" y1="38.0" x2="50.0" y2="62.0" style="stroke:black; stroke-width:1px;" />
<line x1="50.0" y1="69.0" x2="50.0" y2="93.0" style="stroke:black; stroke-width:1px;" />
<line x1="64.75" y1="7.0" x2="64.75" y2="31.0" style="stroke:black; stroke-width:1px;" />
<line x1="64.75" y1="7.0" x2="101.75" y2="31.0" style="stroke:black; stroke-width:1px;" />
<line x1="101.75" y1="38.0" x2="79.5" y2="62.0" style="stroke:black; stroke-width:1px;" />
<line x1="101.75" y1="38.0" x2="96.0" y2="62.0" style="stroke:black; stroke-width:1px;" />
<line x1="101.75" y1="38.0" x2="124.0" y2="62.0" style="stroke:black; stroke-width:1px;" />
<line x1="124.0" y1="69.0" x2="124.0" y2="93.0" style="stroke:black; stroke-width:1px;" />
<line x1="124.0" y1="100.0" x2="103.5" y2="124.0" style="stroke:black; stroke-width:1px;" />
<line x1="124.0" y1="100.0" x2="124.0" y2="124.0" style="stroke:black; stroke-width:1px;" />
<line x1="124.0" y1="131.0" x2="102.0" y2="155.0" style="stroke:black; stroke-width:1px;" />
<line x1="124.0" y1="131.0" x2="118.0" y2="155.0" style="stroke:black; stroke-width:1px;" />
<line x1="124.0" y1="131.0" x2="146.0" y2="155.0" style="stroke:black; stroke-width:1px;" />
<line x1="146.0" y1="162.0" x2="146.0" y2="186.0" style="stroke:black; stroke-width:1px;" />
<line x1="124.0" y1="100.0" x2="144.5" y2="124.0" style="stroke:black; stroke-width:1px;" />
<line x1="64.75" y1="7.0" x2="122.25" y2="31.0" style="stroke:black; stroke-width:1px;" />
<rect x="1.75" y="31.0" width="11.0" height="14.0" style="fill:orange; stroke:rgb(0,0,0);" rx="1"/>
<text x="3" y="40" style="font-family:sans-serif;font-size:10px;">
{
</text>
<rect x="74.0" y="62.0" width="11.0" height="14.0" style="fill:orange; stroke:rgb(0,0,0);" rx="1"/>
<text x="76" y="71" style="font-family:sans-serif;font-size:10px;">
b
</text>
<rect x="116.75" y="31.0" width="11.0" height="14.0" style="fill:orange; stroke:rgb(0,0,0);" rx="1"/>
<text x="118" y="40" style="font-family:sans-serif;font-size:10px;">
}
</text>
<rect x="97.0" y="155.0" width="10.0" height="14.0" style="fill:orange; stroke:rgb(0,0,0);" rx="1"/>
<text x="99" y="164" style="font-family:sans-serif;font-size:10px;">
c
</text>
<rect x="33.0" y="62.0" width="34.0" height="14.0" style="fill:orange; stroke:rgb(0,0,0);" rx="1"/>
<text x="35" y="71" style="font-family:sans-serif;font-size:10px;">
value
</text>
<rect x="98.0" y="124.0" width="11.0" height="14.0" style="fill:orange; stroke:rgb(0,0,0);" rx="1"/>
<text x="100" y="133" style="font-family:sans-serif;font-size:10px;">
{
</text>
<rect x="129.0" y="155.0" width="34.0" height="14.0" style="fill:orange; stroke:rgb(0,0,0);" rx="1"/>
<text x="131" y="164" style="font-family:sans-serif;font-size:10px;">
value
</text>
<rect x="139.0" y="124.0" width="11.0" height="14.0" style="fill:orange; stroke:rgb(0,0,0);" rx="1"/>
<text x="141" y="133" style="font-family:sans-serif;font-size:10px;">
}
</text>
<rect x="116.0" y="124.0" width="16.0" height="14.0" style="fill:orange; stroke:rgb(0,0,0);" rx="1"/>
<text x="118" y="133" style="font-family:sans-serif;font-size:10px;">
kv
</text>
<rect x="114.0" y="155.0" width="8.0" height="14.0" style="fill:orange; stroke:rgb(0,0,0);" rx="1"/>
<text x="116" y="164" style="font-family:sans-serif;font-size:10px;">
:
</text>
<rect x="0.0" y="62.0" width="11.0" height="14.0" style="fill:orange; stroke:rgb(0,0,0);" rx="1"/>
<text x="2" y="71" style="font-family:sans-serif;font-size:10px;">
a
</text>
<rect x="93.75" y="31.0" width="16.0" height="14.0" style="fill:orange; stroke:rgb(0,0,0);" rx="1"/>
<text x="95" y="40" style="font-family:sans-serif;font-size:10px;">
kv
</text>
<rect x="54.25" y="0.0" width="21.0" height="14.0" style="fill:orange; stroke:rgb(0,0,0);" rx="1"/>
<text x="56" y="9" style="font-family:sans-serif;font-size:10px;">
init
</text>
<rect x="92.0" y="62.0" width="8.0" height="14.0" style="fill:orange; stroke:rgb(0,0,0);" rx="1"/>
<text x="94" y="71" style="font-family:sans-serif;font-size:10px;">
:
</text>
<rect x="18.0" y="62.0" width="8.0" height="14.0" style="fill:orange; stroke:rgb(0,0,0);" rx="1"/>
<text x="20" y="71" style="font-family:sans-serif;font-size:10px;">
:
</text>
<rect x="19.75" y="31.0" width="16.0" height="14.0" style="fill:orange; stroke:rgb(0,0,0);" rx="1"/>
<text x="21" y="40" style="font-family:sans-serif;font-size:10px;">
kv
</text>
<rect x="44.5" y="93.0" width="11.0" height="14.0" style="fill:orange; stroke:rgb(0,0,0);" rx="1"/>
<text x="46" y="102" style="font-family:sans-serif;font-size:10px;">
1
</text>
<rect x="60.75" y="31.0" width="8.0" height="14.0" style="fill:orange; stroke:rgb(0,0,0);" rx="1"/>
<text x="62" y="40" style="font-family:sans-serif;font-size:10px;">
,
</text>
<rect x="107.0" y="62.0" width="34.0" height="14.0" style="fill:orange; stroke:rgb(0,0,0);" rx="1"/>
<text x="109" y="71" style="font-family:sans-serif;font-size:10px;">
value
</text>
<rect x="113.5" y="93.0" width="21.0" height="14.0" style="fill:orange; stroke:rgb(0,0,0);" rx="1"/>
<text x="115" y="102" style="font-family:sans-serif;font-size:10px;">
init
</text>
<rect x="140.5" y="186.0" width="11.0" height="14.0" style="fill:orange; stroke:rgb(0,0,0);" rx="1"/>
<text x="142" y="195" style="font-family:sans-serif;font-size:10px;">
2
</text>
</svg>